<svg xmlns="http://www.w3.org/2000/svg" width="28.977" height="30.849" viewBox="0 0 28.977 30.849">
  <g id="Grupo_278" data-name="Grupo 278" transform="translate(-105.928 -421.919)">
    <path id="Caminho_192" data-name="Caminho 192" d="M14.34,2.507H12.962a3.454,3.454,0,0,0-6.643,0H4.94a.947.947,0,0,0-.94.94v1.88A2.2,2.2,0,0,0,6.193,7.52h6.894A2.2,2.2,0,0,0,15.28,5.327V3.447A.947.947,0,0,0,14.34,2.507Z" transform="translate(106.941 421.919)" fill="#fff"/>
    <path id="Caminho_193" data-name="Caminho 193" d="M17.86,3h-.313V4.567A3.445,3.445,0,0,1,14.1,8.013H7.207A3.445,3.445,0,0,1,3.76,4.567V3H3.447A3.445,3.445,0,0,0,0,6.447V22.114a3.445,3.445,0,0,0,3.447,3.447H14.1c.023-.125-.055-2.007,0-4.673-.175-.276-.479-.04-.6-.34H4.7a.94.94,0,0,1,0-1.88h9.487a5.371,5.371,0,0,1,.328-2.193H4.7a.94.94,0,1,1,0-1.88H16.081c2.818-.042,3.154.037,4.238,0a1.828,1.828,0,0,0,.951,0h0c.324-1.51.038-8.147.038-8.147A3.445,3.445,0,0,0,17.86,3Zm-1.253,9.4H4.7a.94.94,0,0,1,0-1.88H16.607a.94.94,0,0,1,0,1.88Z" transform="translate(105.928 422.679)" fill="#fff"/>
    <path id="Caminho_103" data-name="Caminho 103" d="M20.269.939A.942.942,0,0,0,19.33,0H14.636V3.755a1.252,1.252,0,0,1-2.5,0V0H7.439A.942.942,0,0,0,6.5.939V12.83a.941.941,0,0,0,.939.939H19.33a.942.942,0,0,0,.939-.939Z" transform="translate(114.636 439)" fill="#fff"/>
  </g>
</svg>
